<svg xmlns="http://www.w3.org/2000/svg" width="32" height="32" viewBox="0 0 32 32">
  <!-- Upper claw arm -->
  <path d="M10 20 Q8 14 12 9 Q14 6 17 5 Q19 4.5 18 7 Q16 8 15 10 Q13 14 14 19"
        fill="#E8623A" stroke="#b84020" stroke-width="0.8"/>
  <!-- Lower claw arm -->
  <path d="M14 20 Q12 15 14 11 Q15 8 18 7 Q20 6.5 19 9 Q17 10 16 13 Q15 16 16 20"
        fill="#E8623A" stroke="#b84020" stroke-width="0.8"/>
  <!-- Claw joint / body -->
  <ellipse cx="14" cy="21" rx="4" ry="3.5" fill="#E8623A" stroke="#b84020" stroke-width="0.8"/>
  <!-- Arm connecting to body -->
  <rect x="11" y="23" width="6" height="7" rx="3" fill="#c84e28" stroke="#b84020" stroke-width="0.8"/>
  <!-- Claw tip highlights -->
  <circle cx="17.5" cy="6" r="1.2" fill="#ff8c5a"/>
  <circle cx="18.5" cy="8.5" r="0.8" fill="#ff8c5a"/>
</svg>
